# xmcd
#
# Track frame offsets:
#	150
#	16710
#	34875
#	59120
#	72870
#	93330
#	113520
#	139795
#	160495
#	186470
#	204190
#	232305
#
# Disc length: 3314 seconds
#
# Revision: 1
# Processed by: cddbd v1.5PL3 Copyright (c) Steve Scherf et al.
# Submitted via: CDmax 2.0
#
DISCID=a90cf00c
DTITLE=Texas Slim Blues Band - Blue This Morning
DYEAR=1997
DGENRE=Blues
TTITLE0=You Drink Too Much
TTITLE1=Criminal Love
TTITLE2=Blue This Morning
TTITLE3=Onion Rings
TTITLE4=Soul For a Heel
TTITLE5=Blue Down To the Bone
TTITLE6=Coffee Grindin' Mamma
TTITLE7=Just Dance
TTITLE8=Won't Give Up On Your Love
TTITLE9=She's Coming Home
TTITLE10=Laundromat Blues
TTITLE11=Them Train Blues
EXTD=LABEL =Gemtone\nID =gt20329\nUPC =014172-032929\nCOPYRIGHT =1997
EXTT0=
EXTT1=
EXTT2=
EXTT3=
EXTT4=
EXTT5=
EXTT6=
EXTT7=
EXTT8=
EXTT9=
EXTT10=
EXTT11=
PLAYORDER=
